<mxfile host="app.diagrams.net" agent="Mozilla/5.0 (Windows NT 10.0; Win64; x64) AppleWebKit/537.36 (KHTML, like Gecko) Chrome/128.0.0.0 Safari/537.36 Edg/128.0.0.0" version="24.7.14">
  <diagram name="第 1 页" id="I-dr9eYYNlHXrmC4Lywh">
    <mxGraphModel dx="2053" dy="1843" grid="1" gridSize="10" guides="1" tooltips="1" connect="1" arrows="1" fold="1" page="1" pageScale="1" pageWidth="827" pageHeight="1169" math="1" shadow="0">
      <root>
        <mxCell id="0" />
        <mxCell id="1" parent="0" />
        <mxCell id="SjrLkb9DiHnMIs6Cydik-50" style="edgeStyle=none;rounded=0;orthogonalLoop=1;jettySize=auto;html=1;exitX=1;exitY=0.5;exitDx=0;exitDy=0;entryX=0;entryY=0.5;entryDx=0;entryDy=0;" edge="1" parent="1" source="SjrLkb9DiHnMIs6Cydik-43" target="SjrLkb9DiHnMIs6Cydik-48">
          <mxGeometry relative="1" as="geometry" />
        </mxCell>
        <mxCell id="SjrLkb9DiHnMIs6Cydik-54" style="edgeStyle=none;rounded=0;orthogonalLoop=1;jettySize=auto;html=1;exitX=1;exitY=0.5;exitDx=0;exitDy=0;entryX=0;entryY=0.5;entryDx=0;entryDy=0;" edge="1" parent="1" source="SjrLkb9DiHnMIs6Cydik-43" target="SjrLkb9DiHnMIs6Cydik-49">
          <mxGeometry relative="1" as="geometry" />
        </mxCell>
        <mxCell id="SjrLkb9DiHnMIs6Cydik-62" style="edgeStyle=none;rounded=0;orthogonalLoop=1;jettySize=auto;html=1;exitX=1;exitY=0.5;exitDx=0;exitDy=0;entryX=0;entryY=0.5;entryDx=0;entryDy=0;" edge="1" parent="1" source="SjrLkb9DiHnMIs6Cydik-43" target="SjrLkb9DiHnMIs6Cydik-61">
          <mxGeometry relative="1" as="geometry" />
        </mxCell>
        <mxCell id="SjrLkb9DiHnMIs6Cydik-43" value="" style="ellipse;whiteSpace=wrap;html=1;aspect=fixed;" vertex="1" parent="1">
          <mxGeometry x="-160" y="245" width="40" height="40" as="geometry" />
        </mxCell>
        <mxCell id="SjrLkb9DiHnMIs6Cydik-55" style="edgeStyle=none;rounded=0;orthogonalLoop=1;jettySize=auto;html=1;exitX=1;exitY=0.5;exitDx=0;exitDy=0;entryX=0;entryY=0.5;entryDx=0;entryDy=0;" edge="1" parent="1" source="SjrLkb9DiHnMIs6Cydik-44" target="SjrLkb9DiHnMIs6Cydik-48">
          <mxGeometry relative="1" as="geometry" />
        </mxCell>
        <mxCell id="SjrLkb9DiHnMIs6Cydik-56" style="edgeStyle=none;rounded=0;orthogonalLoop=1;jettySize=auto;html=1;exitX=1;exitY=0.5;exitDx=0;exitDy=0;entryX=0;entryY=0.5;entryDx=0;entryDy=0;" edge="1" parent="1" source="SjrLkb9DiHnMIs6Cydik-44" target="SjrLkb9DiHnMIs6Cydik-49">
          <mxGeometry relative="1" as="geometry" />
        </mxCell>
        <mxCell id="SjrLkb9DiHnMIs6Cydik-63" style="edgeStyle=none;rounded=0;orthogonalLoop=1;jettySize=auto;html=1;exitX=1;exitY=0.5;exitDx=0;exitDy=0;entryX=0;entryY=0.5;entryDx=0;entryDy=0;" edge="1" parent="1" source="SjrLkb9DiHnMIs6Cydik-44" target="SjrLkb9DiHnMIs6Cydik-61">
          <mxGeometry relative="1" as="geometry" />
        </mxCell>
        <mxCell id="SjrLkb9DiHnMIs6Cydik-44" value="" style="ellipse;whiteSpace=wrap;html=1;aspect=fixed;" vertex="1" parent="1">
          <mxGeometry x="-160" y="345" width="40" height="40" as="geometry" />
        </mxCell>
        <mxCell id="SjrLkb9DiHnMIs6Cydik-57" style="edgeStyle=none;rounded=0;orthogonalLoop=1;jettySize=auto;html=1;exitX=1;exitY=0.5;exitDx=0;exitDy=0;entryX=0;entryY=0.5;entryDx=0;entryDy=0;" edge="1" parent="1" source="SjrLkb9DiHnMIs6Cydik-45" target="SjrLkb9DiHnMIs6Cydik-48">
          <mxGeometry relative="1" as="geometry" />
        </mxCell>
        <mxCell id="SjrLkb9DiHnMIs6Cydik-58" style="edgeStyle=none;rounded=0;orthogonalLoop=1;jettySize=auto;html=1;exitX=1;exitY=0.5;exitDx=0;exitDy=0;entryX=0;entryY=0.5;entryDx=0;entryDy=0;" edge="1" parent="1" source="SjrLkb9DiHnMIs6Cydik-45" target="SjrLkb9DiHnMIs6Cydik-49">
          <mxGeometry relative="1" as="geometry" />
        </mxCell>
        <mxCell id="SjrLkb9DiHnMIs6Cydik-64" style="edgeStyle=none;rounded=0;orthogonalLoop=1;jettySize=auto;html=1;exitX=1;exitY=0.5;exitDx=0;exitDy=0;entryX=0;entryY=0.5;entryDx=0;entryDy=0;" edge="1" parent="1" source="SjrLkb9DiHnMIs6Cydik-45" target="SjrLkb9DiHnMIs6Cydik-61">
          <mxGeometry relative="1" as="geometry" />
        </mxCell>
        <mxCell id="SjrLkb9DiHnMIs6Cydik-45" value="" style="ellipse;whiteSpace=wrap;html=1;aspect=fixed;" vertex="1" parent="1">
          <mxGeometry x="-160" y="445" width="40" height="40" as="geometry" />
        </mxCell>
        <mxCell id="SjrLkb9DiHnMIs6Cydik-59" style="edgeStyle=none;rounded=0;orthogonalLoop=1;jettySize=auto;html=1;exitX=1;exitY=0.5;exitDx=0;exitDy=0;entryX=0;entryY=0.5;entryDx=0;entryDy=0;" edge="1" parent="1" source="SjrLkb9DiHnMIs6Cydik-46" target="SjrLkb9DiHnMIs6Cydik-48">
          <mxGeometry relative="1" as="geometry" />
        </mxCell>
        <mxCell id="SjrLkb9DiHnMIs6Cydik-60" style="edgeStyle=none;rounded=0;orthogonalLoop=1;jettySize=auto;html=1;exitX=1;exitY=0.5;exitDx=0;exitDy=0;entryX=0;entryY=0.5;entryDx=0;entryDy=0;" edge="1" parent="1" source="SjrLkb9DiHnMIs6Cydik-46" target="SjrLkb9DiHnMIs6Cydik-49">
          <mxGeometry relative="1" as="geometry" />
        </mxCell>
        <mxCell id="SjrLkb9DiHnMIs6Cydik-65" style="edgeStyle=none;rounded=0;orthogonalLoop=1;jettySize=auto;html=1;exitX=1;exitY=0.5;exitDx=0;exitDy=0;entryX=0;entryY=0.5;entryDx=0;entryDy=0;" edge="1" parent="1" source="SjrLkb9DiHnMIs6Cydik-46" target="SjrLkb9DiHnMIs6Cydik-61">
          <mxGeometry relative="1" as="geometry" />
        </mxCell>
        <mxCell id="SjrLkb9DiHnMIs6Cydik-46" value="" style="ellipse;whiteSpace=wrap;html=1;aspect=fixed;" vertex="1" parent="1">
          <mxGeometry x="-160" y="545" width="40" height="40" as="geometry" />
        </mxCell>
        <mxCell id="SjrLkb9DiHnMIs6Cydik-48" value="" style="ellipse;whiteSpace=wrap;html=1;aspect=fixed;" vertex="1" parent="1">
          <mxGeometry x="140" y="285" width="40" height="40" as="geometry" />
        </mxCell>
        <mxCell id="SjrLkb9DiHnMIs6Cydik-49" value="" style="ellipse;whiteSpace=wrap;html=1;aspect=fixed;" vertex="1" parent="1">
          <mxGeometry x="140" y="385" width="40" height="40" as="geometry" />
        </mxCell>
        <mxCell id="SjrLkb9DiHnMIs6Cydik-61" value="" style="ellipse;whiteSpace=wrap;html=1;aspect=fixed;" vertex="1" parent="1">
          <mxGeometry x="140" y="485" width="40" height="40" as="geometry" />
        </mxCell>
        <mxCell id="SjrLkb9DiHnMIs6Cydik-66" value="例如：这是一个4*3的全连接层（线性层），即意味着输入的每个节点的特征向量要保证为4维。因为对于一个节点的特征矩阵而言，行表示的是节点的数量，而列表示的是节点的维度。" style="text;strokeColor=none;align=left;fillColor=none;html=1;verticalAlign=middle;whiteSpace=wrap;rounded=0;fontSize=19;spacingBottom=0;spacing=0;labelBackgroundColor=none;" vertex="1" parent="1">
          <mxGeometry x="-150" y="20" width="660" height="60" as="geometry" />
        </mxCell>
        <mxCell id="SjrLkb9DiHnMIs6Cydik-73" value="$$w_{11}$$" style="text;strokeColor=none;align=center;fillColor=none;html=1;verticalAlign=middle;whiteSpace=wrap;rounded=0;fontSize=19;" vertex="1" parent="1">
          <mxGeometry x="-60" y="250" width="60" height="30" as="geometry" />
        </mxCell>
        <mxCell id="SjrLkb9DiHnMIs6Cydik-74" value="$$w_{12}$$" style="text;strokeColor=none;align=center;fillColor=none;html=1;verticalAlign=middle;whiteSpace=wrap;rounded=0;fontSize=19;" vertex="1" parent="1">
          <mxGeometry x="-50" y="285" width="60" height="30" as="geometry" />
        </mxCell>
        <mxCell id="SjrLkb9DiHnMIs6Cydik-75" value="$$w_{13}$$" style="text;strokeColor=none;align=center;fillColor=none;html=1;verticalAlign=middle;whiteSpace=wrap;rounded=0;fontSize=19;" vertex="1" parent="1">
          <mxGeometry x="-129" y="284" width="60" height="30" as="geometry" />
        </mxCell>
        <mxCell id="SjrLkb9DiHnMIs6Cydik-76" value="$$w_{21}$$" style="text;strokeColor=none;align=center;fillColor=none;html=1;verticalAlign=middle;whiteSpace=wrap;rounded=0;fontSize=19;" vertex="1" parent="1">
          <mxGeometry x="-110" y="325" width="60" height="30" as="geometry" />
        </mxCell>
        <mxCell id="SjrLkb9DiHnMIs6Cydik-77" value="$$w_{22}$$" style="text;strokeColor=none;align=center;fillColor=none;html=1;verticalAlign=middle;whiteSpace=wrap;rounded=0;fontSize=19;" vertex="1" parent="1">
          <mxGeometry x="-80" y="350" width="60" height="30" as="geometry" />
        </mxCell>
        <mxCell id="SjrLkb9DiHnMIs6Cydik-78" value="$$w_{23}$$" style="text;strokeColor=none;align=center;fillColor=none;html=1;verticalAlign=middle;whiteSpace=wrap;rounded=0;fontSize=19;" vertex="1" parent="1">
          <mxGeometry x="-120" y="380" width="60" height="30" as="geometry" />
        </mxCell>
        <mxCell id="SjrLkb9DiHnMIs6Cydik-79" value="$$w_{31}$$" style="text;strokeColor=none;align=center;fillColor=none;html=1;verticalAlign=middle;whiteSpace=wrap;rounded=0;fontSize=19;" vertex="1" parent="1">
          <mxGeometry x="-110" y="410" width="60" height="30" as="geometry" />
        </mxCell>
        <mxCell id="SjrLkb9DiHnMIs6Cydik-80" value="$$w_{32}$$" style="text;strokeColor=none;align=center;fillColor=none;html=1;verticalAlign=middle;whiteSpace=wrap;rounded=0;fontSize=19;" vertex="1" parent="1">
          <mxGeometry x="-80" y="440" width="60" height="30" as="geometry" />
        </mxCell>
        <mxCell id="SjrLkb9DiHnMIs6Cydik-81" value="$$w_{33}$$" style="text;strokeColor=none;align=center;fillColor=none;html=1;verticalAlign=middle;whiteSpace=wrap;rounded=0;fontSize=19;" vertex="1" parent="1">
          <mxGeometry x="-110" y="470" width="60" height="30" as="geometry" />
        </mxCell>
        <mxCell id="SjrLkb9DiHnMIs6Cydik-83" value="$$w_{43}$$" style="text;strokeColor=none;align=center;fillColor=none;html=1;verticalAlign=middle;whiteSpace=wrap;rounded=0;fontSize=19;" vertex="1" parent="1">
          <mxGeometry x="-69" y="545" width="60" height="30" as="geometry" />
        </mxCell>
        <mxCell id="SjrLkb9DiHnMIs6Cydik-84" value="$$w_{42}$$" style="text;strokeColor=none;align=center;fillColor=none;html=1;verticalAlign=middle;whiteSpace=wrap;rounded=0;fontSize=19;" vertex="1" parent="1">
          <mxGeometry x="-60" y="505" width="60" height="30" as="geometry" />
        </mxCell>
        <mxCell id="SjrLkb9DiHnMIs6Cydik-85" value="$$w_{41}$$" style="text;strokeColor=none;align=center;fillColor=none;html=1;verticalAlign=middle;whiteSpace=wrap;rounded=0;fontSize=19;" vertex="1" parent="1">
          <mxGeometry x="-129" y="500" width="60" height="30" as="geometry" />
        </mxCell>
        <mxCell id="SjrLkb9DiHnMIs6Cydik-86" value="" style="strokeWidth=2;html=1;shape=mxgraph.flowchart.annotation_1;align=left;pointerEvents=1;" vertex="1" parent="1">
          <mxGeometry x="580" y="-15" width="50" height="220" as="geometry" />
        </mxCell>
        <mxCell id="SjrLkb9DiHnMIs6Cydik-87" value="" style="strokeWidth=2;html=1;shape=mxgraph.flowchart.annotation_1;align=left;pointerEvents=1;rotation=-179;" vertex="1" parent="1">
          <mxGeometry x="730" y="-15" width="50" height="215" as="geometry" />
        </mxCell>
        <mxCell id="SjrLkb9DiHnMIs6Cydik-88" value="$$w_{11}$$" style="text;strokeColor=none;align=center;fillColor=none;html=1;verticalAlign=middle;whiteSpace=wrap;rounded=0;fontSize=19;" vertex="1" parent="1">
          <mxGeometry x="590" y="-10" width="60" height="30" as="geometry" />
        </mxCell>
        <mxCell id="SjrLkb9DiHnMIs6Cydik-89" value="$$w_{12}$$" style="text;strokeColor=none;align=center;fillColor=none;html=1;verticalAlign=middle;whiteSpace=wrap;rounded=0;fontSize=19;" vertex="1" parent="1">
          <mxGeometry x="650" y="-10" width="60" height="30" as="geometry" />
        </mxCell>
        <mxCell id="SjrLkb9DiHnMIs6Cydik-90" value="$$w_{13}$$" style="text;strokeColor=none;align=center;fillColor=none;html=1;verticalAlign=middle;whiteSpace=wrap;rounded=0;fontSize=19;" vertex="1" parent="1">
          <mxGeometry x="710" y="-10" width="60" height="30" as="geometry" />
        </mxCell>
        <mxCell id="SjrLkb9DiHnMIs6Cydik-91" value="$$w_{21}$$" style="text;strokeColor=none;align=center;fillColor=none;html=1;verticalAlign=middle;whiteSpace=wrap;rounded=0;fontSize=19;" vertex="1" parent="1">
          <mxGeometry x="590" y="40" width="60" height="30" as="geometry" />
        </mxCell>
        <mxCell id="SjrLkb9DiHnMIs6Cydik-92" value="$$w_{22}$$" style="text;strokeColor=none;align=center;fillColor=none;html=1;verticalAlign=middle;whiteSpace=wrap;rounded=0;fontSize=19;" vertex="1" parent="1">
          <mxGeometry x="650" y="40" width="60" height="30" as="geometry" />
        </mxCell>
        <mxCell id="SjrLkb9DiHnMIs6Cydik-93" value="$$w_{23}$$" style="text;strokeColor=none;align=center;fillColor=none;html=1;verticalAlign=middle;whiteSpace=wrap;rounded=0;fontSize=19;" vertex="1" parent="1">
          <mxGeometry x="710" y="40" width="60" height="30" as="geometry" />
        </mxCell>
        <mxCell id="SjrLkb9DiHnMIs6Cydik-94" value="$$w_{31}$$" style="text;strokeColor=none;align=center;fillColor=none;html=1;verticalAlign=middle;whiteSpace=wrap;rounded=0;fontSize=19;" vertex="1" parent="1">
          <mxGeometry x="590" y="100" width="60" height="30" as="geometry" />
        </mxCell>
        <mxCell id="SjrLkb9DiHnMIs6Cydik-95" value="$$w_{32}$$" style="text;strokeColor=none;align=center;fillColor=none;html=1;verticalAlign=middle;whiteSpace=wrap;rounded=0;fontSize=19;" vertex="1" parent="1">
          <mxGeometry x="650" y="100" width="60" height="30" as="geometry" />
        </mxCell>
        <mxCell id="SjrLkb9DiHnMIs6Cydik-96" value="$$w_{33}$$" style="text;strokeColor=none;align=center;fillColor=none;html=1;verticalAlign=middle;whiteSpace=wrap;rounded=0;fontSize=19;" vertex="1" parent="1">
          <mxGeometry x="710" y="100" width="60" height="30" as="geometry" />
        </mxCell>
        <mxCell id="SjrLkb9DiHnMIs6Cydik-97" value="$$w_{41}$$" style="text;strokeColor=none;align=center;fillColor=none;html=1;verticalAlign=middle;whiteSpace=wrap;rounded=0;fontSize=19;" vertex="1" parent="1">
          <mxGeometry x="590" y="150" width="60" height="30" as="geometry" />
        </mxCell>
        <mxCell id="SjrLkb9DiHnMIs6Cydik-98" value="$$w_{42}$$" style="text;strokeColor=none;align=center;fillColor=none;html=1;verticalAlign=middle;whiteSpace=wrap;rounded=0;fontSize=19;" vertex="1" parent="1">
          <mxGeometry x="650" y="150" width="60" height="30" as="geometry" />
        </mxCell>
        <mxCell id="SjrLkb9DiHnMIs6Cydik-99" value="$$w_{43}$$" style="text;strokeColor=none;align=center;fillColor=none;html=1;verticalAlign=middle;whiteSpace=wrap;rounded=0;fontSize=19;" vertex="1" parent="1">
          <mxGeometry x="710" y="150" width="60" height="30" as="geometry" />
        </mxCell>
        <mxCell id="SjrLkb9DiHnMIs6Cydik-100" value="MLP多层感知机实际上就是包含输入层，隐藏层、输出层的一个结构，每一层之间的神经元都是全连接的" style="text;strokeColor=none;align=left;fillColor=none;html=1;verticalAlign=middle;whiteSpace=wrap;rounded=0;fontSize=17;" vertex="1" parent="1">
          <mxGeometry x="360" y="235" width="450" height="60" as="geometry" />
        </mxCell>
        <mxCell id="SjrLkb9DiHnMIs6Cydik-101" value="根据上述的解释可以知道，如果仅有全连接层的话，那么其实只能对节点的特征矩阵进行学习，而无法考虑节点之间的连接情况。即无法考虑A这个邻接矩阵" style="text;strokeColor=none;align=left;fillColor=none;html=1;verticalAlign=middle;whiteSpace=wrap;rounded=0;fontSize=17;" vertex="1" parent="1">
          <mxGeometry x="269" y="505" width="541" height="30" as="geometry" />
        </mxCell>
      </root>
    </mxGraphModel>
  </diagram>
</mxfile>
